<svg width="129" height="161" viewBox="0 0 129 161" fill="none" xmlns="http://www.w3.org/2000/svg">
<path d="M61.209 11.7718V0.911621H62.9499L68.8917 9.28847V0.911621H70.4187V11.7718H68.755L62.736 3.28803V11.7718H61.209Z" fill="#64CDC9"/>
<path d="M128.5 98C128.5 132.507 99.8574 160.5 64.5 160.5C29.1426 160.5 0.5 132.507 0.5 98C0.5 63.4932 29.1426 35.5 64.5 35.5C99.8574 35.5 128.5 63.4932 128.5 98Z" stroke="#817368"/>
<path d="M66.3536 22.6464C66.1583 22.4512 65.8417 22.4512 65.6464 22.6464L62.4645 25.8284C62.2692 26.0237 62.2692 26.3403 62.4645 26.5355C62.6597 26.7308 62.9763 26.7308 63.1716 26.5355L66 23.7071L68.8284 26.5355C69.0237 26.7308 69.3403 26.7308 69.5355 26.5355C69.7308 26.3403 69.7308 26.0237 69.5355 25.8284L66.3536 22.6464ZM66.5 99L66.5 23L65.5 23L65.5 99L66.5 99Z" fill="#64CDC9"/>
</svg>
