<svg width="30" height="30" viewBox="0 0 30 30" fill="none" xmlns="http://www.w3.org/2000/svg">
<path d="M15 3.75C18.0575 3.75 18.4375 3.7625 19.6375 3.81875C20.8375 3.87375 21.655 4.0625 22.3713 4.34C23.1213 4.6225 23.8025 5.065 24.3637 5.64C24.9387 6.2 25.3888 6.88 25.6637 7.63125C25.9387 8.34625 26.1388 9.16375 26.1888 10.3612C26.2475 11.5612 26.2613 11.9362 26.2613 14.9987C26.2613 18.0612 26.2488 18.4362 26.1938 19.6362C26.1388 20.8237 25.9487 21.6488 25.6725 22.3612C25.3888 23.1112 24.9475 23.7863 24.3725 24.3488C23.81 24.9212 23.1325 25.365 22.3825 25.6487C21.6675 25.9262 20.8487 26.115 19.6512 26.17C18.4513 26.225 18.0687 26.2387 15.0138 26.2387C11.9587 26.2387 11.5762 26.2263 10.3762 26.17C9.17625 26.1175 8.36 25.9287 7.64375 25.6512C6.89375 25.3675 6.21125 24.9263 5.65 24.3513C5.075 23.7888 4.6325 23.11 4.35 22.36C4.075 21.6438 3.88375 20.8263 3.82875 19.6287C3.7625 18.4375 3.75 18.0562 3.75 15C3.75 11.9438 3.765 11.5625 3.81875 10.3625C3.8725 9.1625 4.0625 8.34625 4.34 7.63C4.62375 6.88 5.065 6.2 5.64 5.63875C6.2025 5.07625 6.88125 4.62625 7.6325 4.35125C8.3475 4.07375 9.165 3.885 10.3625 3.83C11.5625 3.7625 11.9462 3.75 15 3.75ZM21.0063 6.375C20.5238 6.375 20.0788 6.63375 19.8375 7.05C19.5962 7.46875 19.5962 7.98375 19.8375 8.4C20.0788 8.81875 20.525 9.075 21.0063 9.075C21.7525 9.075 22.3563 8.47125 22.3563 7.725C22.3563 6.98 21.7525 6.375 21.0063 6.375ZM15 9.225C11.81 9.225 9.225 11.8125 9.225 15.0037C9.225 18.1962 11.8125 20.7825 15.0025 20.7812C18.1937 20.7812 20.78 18.1937 20.7775 15.0025C20.7775 11.8112 18.19 9.225 15 9.225ZM15 11.25C16.3588 11.225 17.625 11.9325 18.31 13.1038C18.9975 14.275 18.9975 15.725 18.31 16.8962C17.6225 18.0675 16.36 18.7762 15.0013 18.75C12.9638 18.71 11.3263 17.0425 11.3263 15C11.3263 12.9575 12.9625 11.29 15 11.25Z" fill="#646B70"/>
</svg>
