<?xml version="1.0" encoding="utf-8"?>
<!-- Generator: Adobe Illustrator 25.0.0, SVG Export Plug-In . SVG Version: 6.00 Build 0)  -->
<svg version="1.1" id="Слой_1" xmlns="http://www.w3.org/2000/svg" xmlns:xlink="http://www.w3.org/1999/xlink" x="0px" y="0px"
	 width="213.6px" height="39.5px" viewBox="0 0 213.6 39.5" style="enable-background:new 0 0 213.6 39.5;" xml:space="preserve">
<style type="text/css">
	.st0{fill:#817368;}
</style>
<g>
	<g>
		<path class="st0" d="M13.7,5.2c0,1.7-0.5,3.2-1.4,4.3c-1.2,1.3-2.9,2-5.2,2c-0.5,0-1,0-1.4-0.1C5.4,11.3,5,11.2,4.4,11v6.7h2.3v1
			H0v-1h2.2V1.3H0v-1h8c1.7,0,3.1,0.5,4.2,1.4C13.2,2.7,13.7,3.8,13.7,5.2z M11.3,5.5c0-1.1-0.4-2-1.1-2.8C9.3,1.9,8.3,1.5,7.1,1.5
			H4.4V10c0.3,0.1,0.7,0.2,1.2,0.2s0.9,0.1,1.4,0.1c1.5,0,2.6-0.5,3.3-1.6C11,7.8,11.3,6.8,11.3,5.5z"/>
	</g>
	<g>
		<path class="st0" d="M35,18.7H21v-1h2.2V1.3H21v-1h13.5v3.3h-1.3V1.8h-7.7v6.6h6.4V6.2h1.3v5.3h-1.3V9.5h-6.4v7.8h8.2v-2.5H35
			V18.7z"/>
	</g>
	<g>
		<path class="st0" d="M62.2,18.7h-6.6v-1h2.2v-16H47.3v16h2.2v1h-6.6v-1H45V1.3h-2.2v-1h19.3v1H60v16.5h2.2V18.7z"/>
	</g>
	<g>
		<path class="st0" d="M88.6,18.7H82v-1h2.2V4.4L73.9,16.5v1.3H76v1h-6.6v-1h2.2V1.3h-2.2v-1H76v1h-2.2v13.5l10.3-12l0-1.5H82v-1
			h6.6v1h-2.2v16.5h2.2L88.6,18.7L88.6,18.7z"/>
	</g>
	<g>
		<path class="st0" d="M115.3,18.7h-6.6v-1h2.2V9.5h-10.4v8.2h2.2v1h-6.6v-1h2.2V1.3h-2.2v-1h6.6v1h-2.2v7.1h10.4V1.3h-2.2v-1h6.6v1
			h-2.2v16.5h2.2V18.7z"/>
	</g>
	<g>
		<path class="st0" d="M140.1,16c-0.8,1-1.9,1.8-3.2,2.2c-1.3,0.5-2.6,0.8-4,0.8c-3.2,0-5.7-1-7.5-2.9c-1.6-1.7-2.5-3.9-2.5-6.5
			c0-2.9,0.9-5.2,2.8-6.9S130,0,132.9,0c1.1,0,2,0.2,2.8,0.5s1.5,0.8,2.1,1.4l0.2,0.5l0,0V1.9V0.3h1.4v5.1H138
			c0-1.2-0.5-2.3-1.4-3.1c-0.9-0.8-2.2-1.2-3.7-1.2c-2.3,0-4.1,0.8-5.4,2.3c-1.4,1.5-2,3.5-2,6c0,2.4,0.7,4.4,2.1,6.1
			c1.4,1.6,3.2,2.4,5.4,2.4c1.1,0,2.1-0.2,3.1-0.4c1.2-0.4,2.3-1.1,3.3-2.1L140.1,16z"/>
	</g>
	<g>
		<path class="st0" d="M165.7,18.7H159v-1h2.1l-6-8.7l-2.8,3.2v5.5h2.2v1h-6.6v-1h2.2V1.3h-2.2v-1h6.6v1h-2.2v9.4l8.5-9.4h-2.2v-1
			h5.6v1H162l-5.5,6.2l7.1,10.3l2.1,0L165.7,18.7L165.7,18.7z"/>
	</g>
	<g>
		<path class="st0" d="M192.1,9.5c0,2.3-0.8,4.4-2.3,6.2c-1.8,2.2-4.3,3.3-7.4,3.3c-3,0-5.5-1.1-7.3-3.2c-1.5-1.8-2.3-3.9-2.3-6.3
			c0-2.4,0.8-4.5,2.2-6.3c1.8-2.2,4.2-3.2,7.3-3.2c3.1,0,5.5,1.1,7.3,3.2C191.4,5.1,192.1,7.2,192.1,9.5z M189.7,9.5
			c0-2.4-0.7-4.4-2-6c-1.4-1.6-3-2.3-5.1-2.3c-2.1,0-3.8,0.8-5.1,2.3c-1.3,1.5-2,3.6-2,6c0,2.5,0.7,4.5,2,6s3,2.3,5.1,2.3
			c2,0,3.7-0.8,5.1-2.3C189,14,189.7,12,189.7,9.5z"/>
	</g>
	<g>
		<path class="st0" d="M213.6,18.7h-13.9v-1h2.2V1.3h-2.2v-1h13.5v3.3h-1.3V1.8h-7.7v6.6h6.5V6.2h1.3v5.3h-1.3V9.5h-6.5v7.8h8.2
			v-2.5h1.3V18.7z"/>
	</g>
</g>
<g>
	<polygon class="st0" points="47.9,32.2 47.9,32.2 47.9,31.8 46.9,31.8 44.9,35.1 43.9,35.1 43.9,31.8 42.8,31.8 42.8,39.4 
		43.9,39.4 43.9,36 44.9,36 47,39.4 48,39.4 48,38.9 45.8,35.5 	"/>
	<path class="st0" d="M51.9,35.5c0,1.1-0.1,1.9-0.3,2.3c-0.2,0.4-0.5,0.6-1,0.6h-0.1v1h0.1c0.8,0,1.4-0.3,1.8-0.9
		c0.4-0.6,0.5-1.5,0.5-2.9v-2.8h2.4v6.6h1v-7.6h-4.5L51.9,35.5L51.9,35.5z"/>
	<polygon class="st0" points="62.6,36.1 60.5,31.8 60.5,31.8 59.6,31.8 59.6,32.2 62,37.3 61.3,38.9 61.3,39.4 62.2,39.4 65.2,32.2 
		65.3,31.8 64.4,31.8 	"/>
	<path class="st0" d="M71.7,34.7h-2.2v-2h3.8v-1h-4.9v7.6h3.2c0.6,0,1.1-0.2,1.5-0.6c0.4-0.4,0.5-1,0.5-1.7s-0.2-1.3-0.5-1.7
		C72.8,34.9,72.3,34.7,71.7,34.7z M72.7,37c0,0.4-0.1,0.8-0.3,1c-0.2,0.2-0.5,0.3-0.8,0.3h-2.1v-2.7h2.1c0.3,0,0.6,0.1,0.8,0.3
		C72.6,36.3,72.7,36.6,72.7,37z"/>
	<polygon class="st0" points="81.6,35.1 78.4,35.1 78.4,31.8 77.3,31.8 77.3,39.4 78.4,39.4 78.4,36 81.6,36 81.6,39.4 82.7,39.4 
		82.7,31.8 81.6,31.8 	"/>
	<rect x="92.7" y="31.8" class="st0" width="1" height="7.6"/>
	<path class="st0" d="M90.8,35c-0.3-0.2-0.7-0.3-1.1-0.3h-2v-3h-1v7.6h3c0.6,0,1.1-0.2,1.5-0.6s0.5-1,0.5-1.7c0-0.5-0.1-0.9-0.2-1.2
		C91.3,35.5,91.1,35.2,90.8,35z M90.7,37c0,0.4-0.1,0.8-0.3,1c-0.2,0.2-0.5,0.3-0.8,0.3h-1.9v-2.7h1.9c0.3,0,0.6,0.1,0.8,0.3
		C90.6,36.3,90.7,36.6,90.7,37z"/>
	<path class="st0" d="M99.6,31.3c0.2,0.1,0.5,0.2,0.9,0.2c0.5,0,0.9-0.1,1.2-0.4c0.3-0.3,0.5-0.7,0.5-1.1v-0.2h-0.9V30
		c0,0.1,0,0.2-0.1,0.3c0,0.1-0.1,0.2-0.1,0.2c-0.1,0.1-0.1,0.1-0.2,0.1s-0.2,0.1-0.4,0.1c-0.2,0-0.3,0-0.4-0.1
		c-0.1-0.1-0.2-0.1-0.3-0.2s-0.1-0.2-0.1-0.4v-0.2h-0.9V30c0,0.3,0.1,0.6,0.2,0.8C99.2,31,99.4,31.2,99.6,31.3z"/>
	<polygon class="st0" points="98.8,37.4 98.8,31.8 97.8,31.8 97.8,39.4 98.7,39.4 102.2,33.7 102.2,39.4 103.2,39.4 103.2,31.8 
		102.3,31.8 	"/>
	<polygon class="st0" points="111.9,39.4 113,39.4 113,32.7 116.2,32.7 116.2,39.4 117.2,39.4 117.2,31.8 111.9,31.8 	"/>
	<path class="st0" d="M123.8,31.6c-0.9,0-1.5,0.2-2,0.7c-0.5,0.5-0.8,1.2-0.8,2v2.4c0,0.8,0.2,1.5,0.8,2c0.5,0.5,1.2,0.7,2,0.7
		c0.6,0,1.1-0.1,1.5-0.3c0.4-0.2,0.8-0.5,1-0.9c0.2-0.4,0.3-0.9,0.3-1.5v-2.4c0-0.8-0.2-1.5-0.8-2C125.4,31.9,124.7,31.6,123.8,31.6
		z M125.6,34.3v2.5c0,0.5-0.2,0.9-0.5,1.2s-0.7,0.5-1.3,0.5c-0.6,0-1-0.2-1.3-0.5c-0.3-0.3-0.5-0.7-0.5-1.2v-2.5
		c0-0.5,0.1-0.9,0.5-1.2c0.3-0.3,0.7-0.5,1.3-0.5c0.6,0,1,0.2,1.3,0.5C125.4,33.4,125.6,33.8,125.6,34.3z"/>
	<path class="st0" d="M133,31.6c-0.9,0-1.6,0.2-2,0.7c-0.5,0.5-0.7,1.2-0.7,2v2.4c0,0.9,0.2,1.5,0.7,2c0.5,0.5,1.2,0.7,2,0.7
		c0.8,0,1.4-0.2,1.9-0.7s0.8-1.1,0.8-1.9v-0.2h-1v0.2c0,0.5-0.2,0.9-0.5,1.2c-0.3,0.3-0.7,0.4-1.1,0.4c-0.6,0-1-0.2-1.3-0.4
		c-0.3-0.3-0.4-0.7-0.4-1.2v-2.5c0-0.4,0.1-0.7,0.2-0.9s0.3-0.4,0.6-0.6c0.3-0.1,0.6-0.2,1-0.2c0.4,0,0.8,0.1,1.1,0.4
		c0.3,0.3,0.5,0.7,0.5,1.2v0.2h1v-0.2c0-0.8-0.3-1.5-0.8-1.9C134.4,31.8,133.7,31.6,133,31.6z"/>
	<polygon class="st0" points="140.4,36 143.4,36 143.4,35.1 140.4,35.1 140.4,32.7 143.9,32.7 143.9,31.8 139.3,31.8 139.3,39.4 
		143.9,39.4 143.9,38.4 140.4,38.4 	"/>
	<path class="st0" d="M148.1,35.5c0,1.1-0.1,1.9-0.3,2.3c-0.2,0.4-0.5,0.6-1,0.6h-0.1v1h0.1c0.8,0,1.4-0.3,1.8-0.9
		c0.4-0.6,0.5-1.5,0.5-2.9v-2.8h2.4v6.6h1v-7.6h-4.5L148.1,35.5L148.1,35.5z"/>
	<path class="st0" d="M159.2,31.6c-0.9,0-1.5,0.2-2,0.7c-0.5,0.5-0.8,1.2-0.8,2v2.4c0,0.8,0.2,1.5,0.8,2c0.5,0.5,1.2,0.7,2,0.7
		c0.6,0,1.1-0.1,1.5-0.3c0.4-0.2,0.8-0.5,1-0.9c0.2-0.4,0.3-0.9,0.3-1.5v-2.4c0-0.8-0.2-1.5-0.8-2C160.7,31.9,160,31.6,159.2,31.6z
		 M160.9,34.3v2.5c0,0.5-0.2,0.9-0.5,1.2c-0.3,0.3-0.7,0.5-1.3,0.5s-1-0.2-1.3-0.5c-0.3-0.3-0.5-0.7-0.5-1.2v-2.5
		c0-0.5,0.1-0.9,0.5-1.2c0.3-0.3,0.7-0.5,1.3-0.5c0.6,0,1,0.2,1.3,0.5C160.8,33.4,160.9,33.8,160.9,34.3z"/>
	<polygon class="st0" points="168.7,35.5 170.8,32.2 170.8,32.2 170.8,31.8 169.8,31.8 167.8,35.1 166.8,35.1 166.8,31.8 
		165.8,31.8 165.8,39.4 166.8,39.4 166.8,36 167.8,36 169.9,39.4 170.9,39.4 170.9,38.9 	"/>
</g>
</svg>
