<svg width="27" height="27" viewBox="0 0 27 27" fill="none" xmlns="http://www.w3.org/2000/svg">
<path d="M23.994 17.4096C22.4634 17.4096 20.9605 17.1702 19.5363 16.6996C18.8385 16.4616 17.9806 16.6799 17.5547 17.1174L14.7437 19.2394C11.4838 17.4992 9.47569 15.4918 7.75929 12.2563L9.81886 9.51855C10.3539 8.98418 10.5459 8.20358 10.3159 7.47116C9.84327 6.03952 9.60317 4.53737 9.60317 3.00612C9.60323 1.89993 8.7033 1 7.59718 1H3.00605C1.89993 1 1 1.89993 1 3.00605C1 15.6851 11.3149 26 23.994 26C25.1001 26 26 25.1001 26 23.9939V19.4156C25.9999 18.3096 25.1 17.4096 23.994 17.4096Z" stroke="#646B70" stroke-width="1.75"/>
</svg>
