<svg width="30" height="30" viewBox="0 0 30 30" fill="none" xmlns="http://www.w3.org/2000/svg">
<path d="M16.1039 22.4412C16.1039 22.4412 16.5089 22.3937 16.7164 22.1537C16.9089 21.935 16.9039 21.5212 16.9039 21.5212C16.9039 21.5212 16.8751 19.59 17.7126 19.305C18.5401 19.0237 19.6001 21.1712 20.7226 21.9987C21.5726 22.6237 22.2189 22.4862 22.2189 22.4862L25.2239 22.4362C25.2239 22.4362 26.7864 22.3287 26.0489 21.0112C25.9864 20.8987 25.6114 20.0275 23.8114 18.2362C21.9239 16.3637 22.1764 16.6675 24.4489 13.4275C25.8264 11.4525 26.3864 10.25 26.2114 9.73373C26.0489 9.24248 25.0238 9.37123 25.0238 9.37123L21.6414 9.39623C21.6414 9.39623 21.3914 9.35873 21.2038 9.47748C21.0214 9.59498 20.9039 9.86498 20.9039 9.86498C20.9039 9.86498 20.3664 11.39 19.6539 12.69C18.1501 15.4325 17.5476 15.5775 17.3014 15.405C16.7264 15.0075 16.8714 13.81 16.8714 12.9612C16.8714 10.305 17.2464 9.19873 16.1376 8.91123C15.7701 8.81623 15.5001 8.75373 14.5589 8.74248C13.3526 8.72998 12.3301 8.74873 11.7526 9.05248C11.3676 9.25248 11.0714 9.70248 11.2526 9.72748C11.4776 9.76123 11.9826 9.87498 12.2526 10.265C12.5976 10.7712 12.5839 11.9062 12.5839 11.9062C12.5839 11.9062 12.7839 15.0312 12.1214 15.4187C11.6676 15.6862 11.0414 15.1437 9.69635 12.6562C9.00885 11.3837 8.4901 9.97373 8.4901 9.97373C8.4901 9.97373 8.3901 9.71373 8.21135 9.57123C7.9951 9.40123 7.69135 9.34623 7.69135 9.34623L4.47635 9.37123C4.47635 9.37123 3.9951 9.38373 3.8176 9.60873C3.65885 9.80873 3.8051 10.2212 3.8051 10.2212C3.8051 10.2212 6.3201 16.53 9.17135 19.7087C11.7839 22.6212 14.7526 22.4312 14.7526 22.4312H16.0976L16.1039 22.4412Z" fill="#646B70"/>
</svg>
